# MagicaVoxel @ ephtracy

# material
mtllib soncho.mtl

# normals
vn -1 0 0
vn 1 0 0
vn 0 0 1
vn 0 0 -1
vn 0 -1 0
vn 0 1 0

# texcoords
vt 0.0332031 0.5
vt 0.162109 0.5
vt 0.166016 0.5
vt 0.298828 0.5
vt 0.369141 0.5
vt 0.568359 0.5
vt 0.744141 0.5
vt 0.994141 0.5

# verts
v 3 10 3.5
v 3 11 3.5
v 3 11 2.5
v 3 10 2.5
v -4 10 3.5
v -4 11 3.5
v -4 11 2.5
v -4 10 2.5
v -3 11 -1.5
v -3 12 -1.5
v -3 12 -2.5
v -3 11 -2.5
v -3 10 -1.5
v -3 10 -2.5
v -3 9 -1.5
v -3 9 -2.5
v -3 8 -1.5
v -3 8 -2.5
v -3 7 -1.5
v -3 7 -2.5
v -3 11 -0.5
v -3 12 -0.5
v -3 10 -0.5
v -3 9 -0.5
v -3 8 -0.5
v -3 7 -0.5
v -3 11 0.5
v -3 12 0.5
v -3 10 0.5
v -3 9 0.5
v -3 8 0.5
v -3 7 0.5
v -3 11 1.5
v -3 12 1.5
v -3 10 1.5
v -3 9 1.5
v -3 8 1.5
v -3 7 1.5
v -3 11 2.5
v -3 12 2.5
v -3 10 2.5
v -3 9 2.5
v -3 8 2.5
v -3 7 2.5
v -3 6 3.5
v -3 7 3.5
v -3 6 2.5
v 1 9 3.5
v 1 10 3.5
v 1 10 2.5
v 1 9 2.5
v -3 4 3.5
v -3 5 3.5
v -3 5 2.5
v -3 4 2.5
v 1 0 0.5
v 1 1 0.5
v 1 1 -0.5
v 1 0 -0.5
v -2 12 -0.5
v -2 13 -0.5
v -2 13 -1.5
v -2 12 -1.5
v 1 4 -2.5
v 1 5 -2.5
v 1 5 -3.5
v 1 4 -3.5
v -2 12 0.5
v -2 13 0.5
v -2 0 0.5
v -2 1 0.5
v -2 1 -0.5
v -2 0 -0.5
v -2 12 1.5
v -2 13 1.5
v -1 7 3.5
v -1 8 3.5
v -1 8 2.5
v -1 7 2.5
v -2 0 3.5
v -2 1 3.5
v -2 1 2.5
v -2 0 2.5
v -2 5 3.5
v -2 6 3.5
v -2 6 2.5
v -2 5 2.5
v -2 3 3.5
v -2 4 3.5
v -2 4 2.5
v -2 3 2.5
v -2 2 3.5
v -2 2 2.5
v -4 5 0.5
v -4 6 0.5
v -4 6 -0.5
v -4 5 -0.5
v -4 5 1.5
v -4 6 1.5
v -4 4 2.5
v -4 5 2.5
v -4 4 1.5
v -3 6 -1.5
v -3 6 -2.5
v -3 5 -1.5
v -3 5 -2.5
v -3 4 -1.5
v -3 4 -2.5
v -3 2 -1.5
v -3 3 -1.5
v -3 3 -2.5
v -3 2 -2.5
v -3 3 2.5
v -3 4 1.5
v -3 3 1.5
v -3 1 -1.5
v -3 1 -2.5
v -3 6 -0.5
v -3 5 -0.5
v -3 4 -0.5
v -3 2 -0.5
v -3 3 -0.5
v -3 1 -0.5
v -3 6 0.5
v -3 4 0.5
v -3 5 0.5
v -3 2 0.5
v -3 3 0.5
v -3 1 0.5
v -3 6 1.5
v -3 5 1.5
v -3 2 1.5
v -3 1 1.5
v -3 2 2.5
v -3 1 2.5
v -4 9 3.5
v -4 9 2.5
v 4 10 3.5
v 4 10 2.5
v 4 11 2.5
v 4 11 3.5
v 3 7 2.5
v 3 7 1.5
v 3 8 1.5
v 3 8 2.5
v -3 10 3.5
v -3 11 3.5
v 3 9 1.5
v 3 9 2.5
v 3 10 1.5
v 3 11 1.5
v 3 12 1.5
v 3 12 2.5
v 3 7 0.5
v 3 8 0.5
v 3 9 0.5
v 3 10 0.5
v 3 11 0.5
v 3 12 0.5
v 3 7 -0.5
v 3 8 -0.5
v 3 9 -0.5
v 3 10 -0.5
v 3 11 -0.5
v 3 12 -0.5
v 3 7 -1.5
v 3 8 -1.5
v 3 9 -1.5
v 3 10 -1.5
v 3 11 -1.5
v 3 12 -1.5
v 3 7 -2.5
v 3 8 -2.5
v 3 9 -2.5
v 3 10 -2.5
v 3 11 -2.5
v 3 12 -2.5
v 3 4 -2.5
v 3 4 -3.5
v 3 5 -3.5
v 3 5 -2.5
v 2 12 1.5
v 2 12 0.5
v 2 13 0.5
v 2 13 1.5
v 2 0 0.5
v 2 0 -0.5
v 2 1 -0.5
v 2 1 0.5
v 2 12 -0.5
v 2 13 -0.5
v 2 12 -1.5
v 2 13 -1.5
v 1 7 3.5
v 1 7 2.5
v 1 8 2.5
v 1 8 3.5
v -1 0 0.5
v -1 0 -0.5
v -1 1 -0.5
v -1 1 0.5
v 3 3 -1.5
v 3 3 -2.5
v 3 4 -1.5
v -1 0 3.5
v -1 0 2.5
v -1 1 2.5
v -1 1 3.5
v -1 9 3.5
v -1 9 2.5
v -1 10 2.5
v -1 10 3.5
v 3 6 3.5
v 3 6 2.5
v 3 7 3.5
v -1 3 3.5
v -1 3 2.5
v -1 4 2.5
v -1 4 3.5
v -1 2 3.5
v -1 2 2.5
v 2 5 3.5
v 2 5 2.5
v 2 6 2.5
v 2 6 3.5
v 3 1 2.5
v 3 1 1.5
v 3 2 1.5
v 3 2 2.5
v 3 3 1.5
v 3 3 2.5
v 3 4 2.5
v 3 4 1.5
v 3 5 1.5
v 3 5 2.5
v 3 6 1.5
v 3 1 0.5
v 3 2 0.5
v 3 3 0.5
v 3 4 0.5
v 3 5 0.5
v 3 6 0.5
v 3 1 -0.5
v 3 2 -0.5
v 3 3 -0.5
v 3 4 -0.5
v 3 5 -0.5
v 3 6 -0.5
v 3 1 -1.5
v 3 2 -1.5
v 3 5 -1.5
v 3 6 -1.5
v 3 1 -2.5
v 3 2 -2.5
v 3 6 -2.5
v 1 4 3.5
v 1 4 2.5
v 1 5 2.5
v 1 5 3.5
v 4 4 -1.5
v 4 4 -2.5
v 4 5 -2.5
v 4 5 -1.5
v 4 5 -0.5
v 4 6 -1.5
v 4 6 -0.5
v 4 5 0.5
v 4 6 0.5
v 4 9 3.5
v 4 9 2.5
v 2 9 3.5
v 3 9 3.5
v 2 10 3.5
v 2 7 2.5
v 2 8 2.5
v 2 9 2.5
v 2 10 2.5
v 2 11 2.5
v 2 12 2.5
v -2 11 2.5
v -2 12 2.5
v -2 10 2.5
v -2 8 2.5
v -2 9 2.5
v -2 7 2.5
v -2 7 3.5
v 1 6 3.5
v 2 7 3.5
v -3 9 3.5
v -2 9 3.5
v -2 10 3.5
v 1 11 2.5
v 1 12 2.5
v 1 12 1.5
v 1 13 1.5
v 0 5 3.5
v 0 6 3.5
v 0 7 3.5
v 0 8 3.5
v 0 8 2.5
v 0 9 2.5
v 0 10 2.5
v 0 11 2.5
v 0 12 2.5
v 0 12 1.5
v 0 13 1.5
v -1 12 1.5
v -1 13 1.5
v -1 5 3.5
v -1 6 3.5
v -1 11 2.5
v -1 12 2.5
v 0 4 3.5
v 2 1 2.5
v 2 2 2.5
v 2 3 2.5
v 2 4 2.5
v 1 3 2.5
v 0 3 2.5
v 0 4 2.5
v 1 1 2.5
v 1 2 2.5
v 0 1 2.5
v 0 2 2.5
v -2 12 -2.5
v -2 11 -2.5
v -2 10 -2.5
v -2 9 -2.5
v -2 8 -2.5
v -2 7 -2.5
v 2 7 -2.5
v 2 8 -2.5
v 2 9 -2.5
v 2 10 -2.5
v 2 11 -2.5
v 2 12 -2.5
v 2 4 -3.5
v 2 5 -3.5
v -1 12 -2.5
v -1 11 -2.5
v -1 10 -2.5
v -1 9 -2.5
v -1 8 -2.5
v -1 7 -2.5
v 1 12 -1.5
v 1 13 -1.5
v -1 13 -1.5
v -1 12 -1.5
v 1 7 -2.5
v 1 8 -2.5
v 1 9 -2.5
v 1 10 -2.5
v 1 11 -2.5
v 1 12 -2.5
v 1 3 -2.5
v 2 4 -2.5
v 2 3 -2.5
v 0 12 -1.5
v 0 13 -1.5
v 0 7 -2.5
v 0 8 -2.5
v 0 9 -2.5
v 0 10 -2.5
v 0 11 -2.5
v 0 12 -2.5
v -2 6 -2.5
v -2 5 -2.5
v -2 4 -2.5
v -1 5 -2.5
v -1 6 -2.5
v 0 6 -2.5
v 0 5 -2.5
v -2 3 -2.5
v -2 2 -2.5
v -2 1 -2.5
v -1 2 -2.5
v -1 3 -2.5
v 0 3 -2.5
v 0 2 -2.5
v -1 1 -2.5
v 0 1 -2.5
v 2 1 -2.5
v 2 2 -2.5
v 2 5 -2.5
v 2 6 -2.5
v -1 4 -2.5
v 0 4 -2.5
v 1 1 -2.5
v 1 2 -2.5
v 1 6 -2.5
v -2 1 1.5
v -1 1 1.5
v 2 1 1.5
v -2 1 -1.5
v 2 1 -1.5
v -1 1 -1.5
v 0 1 -1.5
v 1 1 1.5
v 1 1 -1.5
v 0 1 1.5
v 0 1 0.5
v 0 1 -0.5
v 1 13 0.5
v 1 13 -0.5
v -1 13 -0.5
v -1 13 0.5
v 0 13 0.5
v 0 13 -0.5

# faces

usemtl palette

f 1/3/1 2/3/1 3/3/1 4/3/1

f 5/3/1 6/3/1 7/3/1 8/3/1

f 9/1/1 10/1/1 11/1/1 12/1/1

f 13/1/1 9/1/1 12/1/1 14/1/1

f 15/1/1 13/1/1 14/1/1 16/1/1

f 17/1/1 15/1/1 16/1/1 18/1/1

f 19/1/1 17/1/1 18/1/1 20/1/1

f 21/1/1 22/1/1 10/1/1 9/1/1

f 23/1/1 21/1/1 9/1/1 13/1/1

f 24/1/1 23/1/1 13/1/1 15/1/1

f 25/1/1 24/1/1 15/1/1 17/1/1

f 26/1/1 25/1/1 17/1/1 19/1/1

f 27/1/1 28/1/1 22/1/1 21/1/1

f 29/1/1 27/1/1 21/1/1 23/1/1

f 30/1/1 29/1/1 23/1/1 24/1/1

f 31/1/1 30/1/1 24/1/1 25/1/1

f 32/1/1 31/1/1 25/1/1 26/1/1

f 33/1/1 34/1/1 28/1/1 27/1/1

f 35/1/1 33/1/1 27/1/1 29/1/1

f 36/1/1 35/1/1 29/1/1 30/1/1

f 37/1/1 36/1/1 30/1/1 31/1/1

f 38/1/1 37/1/1 31/1/1 32/1/1

f 39/1/1 40/1/1 34/1/1 33/1/1

f 41/1/1 39/1/1 33/1/1 35/1/1

f 42/1/1 41/1/1 35/1/1 36/1/1

f 43/1/1 42/1/1 36/1/1 37/1/1

f 44/1/1 43/1/1 37/1/1 38/1/1

f 45/3/1 46/3/1 44/3/1 47/3/1

f 48/3/1 49/3/1 50/3/1 51/3/1

f 52/1/1 53/1/1 54/1/1 55/1/1

f 56/6/1 57/6/1 58/6/1 59/6/1

f 60/1/1 61/1/1 62/1/1 63/1/1

f 64/1/1 65/1/1 66/1/1 67/1/1

f 68/1/1 69/1/1 61/1/1 60/1/1

f 70/6/1 71/6/1 72/6/1 73/6/1

f 74/1/1 75/1/1 69/1/1 68/1/1

f 76/3/1 77/3/1 78/3/1 79/3/1

f 80/5/1 81/5/1 82/5/1 83/5/1

f 84/3/1 85/3/1 86/3/1 87/3/1

f 88/5/1 89/5/1 90/5/1 91/5/1

f 92/5/1 88/5/1 91/5/1 93/5/1

f 81/5/1 92/5/1 93/5/1 82/5/1

f 94/4/1 95/4/1 96/4/1 97/4/1

f 98/4/1 99/4/1 95/4/1 94/4/1

f 100/4/1 101/4/1 98/4/1 102/4/1

f 103/7/1 19/7/1 20/7/1 104/7/1

f 105/7/1 103/7/1 104/7/1 106/7/1

f 107/7/1 105/7/1 106/7/1 108/7/1

f 109/7/1 110/7/1 111/7/1 112/7/1

f 113/2/1 55/2/1 114/2/1 115/2/1

f 116/7/1 109/7/1 112/7/1 117/7/1

f 118/7/1 26/7/1 19/7/1 103/7/1

f 119/7/1 118/7/1 103/7/1 105/7/1

f 120/7/1 119/7/1 105/7/1 107/7/1

f 121/7/1 122/7/1 110/7/1 109/7/1

f 123/7/1 121/7/1 109/7/1 116/7/1

f 124/7/1 32/7/1 26/7/1 118/7/1

f 125/7/1 126/7/1 119/7/1 120/7/1

f 127/7/1 128/7/1 122/7/1 121/7/1

f 129/7/1 127/7/1 121/7/1 123/7/1

f 130/7/1 38/7/1 32/7/1 124/7/1

f 114/7/1 131/7/1 126/7/1 125/7/1

f 132/7/1 115/7/1 128/7/1 127/7/1

f 133/7/1 132/7/1 127/7/1 129/7/1

f 47/7/1 44/7/1 38/7/1 130/7/1

f 54/7/1 47/7/1 130/7/1 131/7/1

f 134/7/1 113/7/1 115/7/1 132/7/1

f 135/7/1 134/7/1 132/7/1 133/7/1

f 115/2/1 114/2/1 125/2/1 128/2/1

f 128/2/1 125/2/1 120/2/1 122/2/1

f 122/2/1 120/2/1 107/2/1 110/2/1

f 110/2/1 107/2/1 108/2/1 111/2/1

f 136/3/1 5/3/1 8/3/1 137/3/1

f 138/3/2 139/3/2 140/3/2 141/3/2

f 142/1/2 143/1/2 144/1/2 145/1/2

f 146/3/2 41/3/2 39/3/2 147/3/2

f 145/1/2 144/1/2 148/1/2 149/1/2

f 149/1/2 148/1/2 150/1/2 4/1/2

f 4/1/2 150/1/2 151/1/2 3/1/2

f 3/1/2 151/1/2 152/1/2 153/1/2

f 143/1/2 154/1/2 155/1/2 144/1/2

f 144/1/2 155/1/2 156/1/2 148/1/2

f 148/1/2 156/1/2 157/1/2 150/1/2

f 150/1/2 157/1/2 158/1/2 151/1/2

f 151/1/2 158/1/2 159/1/2 152/1/2

f 154/1/2 160/1/2 161/1/2 155/1/2

f 155/1/2 161/1/2 162/1/2 156/1/2

f 156/1/2 162/1/2 163/1/2 157/1/2

f 157/1/2 163/1/2 164/1/2 158/1/2

f 158/1/2 164/1/2 165/1/2 159/1/2

f 160/1/2 166/1/2 167/1/2 161/1/2

f 161/1/2 167/1/2 168/1/2 162/1/2

f 162/1/2 168/1/2 169/1/2 163/1/2

f 163/1/2 169/1/2 170/1/2 164/1/2

f 164/1/2 170/1/2 171/1/2 165/1/2

f 166/1/2 172/1/2 173/1/2 167/1/2

f 167/1/2 173/1/2 174/1/2 168/1/2

f 168/1/2 174/1/2 175/1/2 169/1/2

f 169/1/2 175/1/2 176/1/2 170/1/2

f 170/1/2 176/1/2 177/1/2 171/1/2

f 178/1/2 179/1/2 180/1/2 181/1/2

f 182/1/2 183/1/2 184/1/2 185/1/2

f 186/6/2 187/6/2 188/6/2 189/6/2

f 183/1/2 190/1/2 191/1/2 184/1/2

f 190/1/2 192/1/2 193/1/2 191/1/2

f 194/3/2 195/3/2 196/3/2 197/3/2

f 198/6/2 199/6/2 200/6/2 201/6/2

f 202/2/2 203/2/2 178/2/2 204/2/2

f 205/5/2 206/5/2 207/5/2 208/5/2

f 209/3/2 210/3/2 211/3/2 212/3/2

f 213/3/2 214/3/2 142/3/2 215/3/2

f 216/5/2 217/5/2 218/5/2 219/5/2

f 220/5/2 221/5/2 217/5/2 216/5/2

f 208/5/2 207/5/2 221/5/2 220/5/2

f 222/3/2 223/3/2 224/3/2 225/3/2

f 226/7/2 227/7/2 228/7/2 229/7/2

f 229/7/2 228/7/2 230/7/2 231/7/2

f 232/7/2 233/7/2 234/7/2 235/7/2

f 235/7/2 234/7/2 236/7/2 214/7/2

f 214/7/2 236/7/2 143/7/2 142/7/2

f 227/7/2 237/7/2 238/7/2 228/7/2

f 228/7/2 238/7/2 239/7/2 230/7/2

f 233/7/2 240/7/2 241/7/2 234/7/2

f 234/7/2 241/7/2 242/7/2 236/7/2

f 236/7/2 242/7/2 154/7/2 143/7/2

f 237/7/2 243/7/2 244/7/2 238/7/2

f 238/7/2 244/7/2 245/7/2 239/7/2

f 240/7/2 246/7/2 247/7/2 241/7/2

f 242/7/2 248/7/2 160/7/2 154/7/2

f 243/7/2 249/7/2 250/7/2 244/7/2

f 244/7/2 250/7/2 202/7/2 245/7/2

f 246/7/2 204/7/2 251/7/2 247/7/2

f 248/7/2 252/7/2 166/7/2 160/7/2

f 249/7/2 253/7/2 254/7/2 250/7/2

f 250/7/2 254/7/2 203/7/2 202/7/2

f 251/7/2 181/7/2 255/7/2 252/7/2

f 252/7/2 255/7/2 172/7/2 166/7/2

f 231/2/2 230/2/2 233/2/2 232/2/2

f 230/2/2 239/2/2 240/2/2 233/2/2

f 239/2/2 245/2/2 246/2/2 240/2/2

f 245/2/2 202/2/2 204/2/2 246/2/2

f 256/3/2 257/3/2 258/3/2 259/3/2

f 260/4/2 261/4/2 262/4/2 263/4/2

f 264/4/2 263/4/2 265/4/2 266/4/2

f 267/4/2 264/4/2 266/4/2 268/4/2

f 269/3/2 270/3/2 139/3/2 138/3/2

f 1/3/3 138/3/3 141/3/3 2/3/3

f 271/3/3 272/3/3 1/3/3 273/3/3

f 274/1/3 142/1/3 145/1/3 275/1/3

f 5/3/3 146/3/3 147/3/3 6/3/3

f 275/1/3 145/1/3 149/1/3 276/1/3

f 277/1/3 4/1/3 3/1/3 278/1/3

f 278/1/3 3/1/3 153/1/3 279/1/3

f 39/1/3 280/1/3 281/1/3 40/1/3

f 41/1/3 282/1/3 280/1/3 39/1/3

f 43/1/3 283/1/3 284/1/3 42/1/3

f 44/1/3 285/1/3 283/1/3 43/1/3

f 45/3/3 85/3/3 286/3/3 46/3/3

f 287/3/3 225/3/3 288/3/3 194/3/3

f 48/3/3 271/3/3 273/3/3 49/3/3

f 195/1/3 274/1/3 275/1/3 196/1/3

f 196/8/3 275/8/3 276/8/3 51/8/3

f 289/3/3 290/3/3 291/3/3 146/3/3

f 52/1/3 89/1/3 84/1/3 53/1/3

f 50/1/3 277/1/3 278/1/3 292/1/3

f 292/1/3 278/1/3 279/1/3 293/1/3

f 294/1/3 182/1/3 185/1/3 295/1/3

f 56/6/3 186/6/3 189/6/3 57/6/3

f 296/3/3 259/3/3 287/3/3 297/3/3

f 297/3/3 287/3/3 194/3/3 298/3/3

f 298/3/3 194/3/3 197/3/3 299/3/3

f 300/1/3 196/1/3 51/1/3 301/1/3

f 301/1/3 51/1/3 50/1/3 302/1/3

f 302/1/3 50/1/3 292/1/3 303/1/3

f 303/1/3 292/1/3 293/1/3 304/1/3

f 305/1/3 294/1/3 295/1/3 306/1/3

f 70/6/3 198/6/3 201/6/3 71/6/3

f 74/1/3 307/1/3 308/1/3 75/1/3

f 309/3/3 296/3/3 297/3/3 310/3/3

f 310/3/3 297/3/3 298/3/3 76/3/3

f 76/3/3 298/3/3 299/3/3 77/3/3

f 78/1/3 300/1/3 301/1/3 210/1/3

f 210/1/3 301/1/3 302/1/3 211/1/3

f 211/1/3 302/1/3 303/1/3 311/1/3

f 311/1/3 303/1/3 304/1/3 312/1/3

f 307/1/3 305/1/3 306/1/3 308/1/3

f 280/1/3 311/1/3 312/1/3 281/1/3

f 282/1/3 211/1/3 311/1/3 280/1/3

f 283/8/3 78/8/3 210/8/3 284/8/3

f 285/1/3 79/1/3 78/1/3 283/1/3

f 80/5/3 205/5/3 208/5/3 81/5/3

f 84/3/3 309/3/3 310/3/3 85/3/3

f 290/3/3 209/3/3 212/3/3 291/3/3

f 85/3/3 310/3/3 76/3/3 286/3/3

f 225/3/3 213/3/3 215/3/3 288/3/3

f 89/1/3 219/1/3 309/1/3 84/1/3

f 88/5/3 216/5/3 219/5/3 89/5/3

f 92/5/3 220/5/3 216/5/3 88/5/3

f 81/5/3 208/5/3 220/5/3 92/5/3

f 259/3/3 222/3/3 225/3/3 287/3/3

f 98/4/3 131/4/3 130/4/3 99/4/3

f 100/4/3 55/4/3 54/4/3 101/4/3

f 219/3/3 313/3/3 296/3/3 309/3/3

f 314/7/3 226/7/3 229/7/3 315/7/3

f 315/7/3 229/7/3 231/7/3 316/7/3

f 317/7/3 232/7/3 235/7/3 223/7/3

f 223/7/3 235/7/3 214/7/3 224/7/3

f 113/2/3 91/2/3 90/2/3 55/2/3

f 318/2/3 316/2/3 317/2/3 257/2/3

f 319/2/3 318/2/3 257/2/3 320/2/3

f 54/7/3 87/7/3 86/7/3 47/7/3

f 134/7/3 93/7/3 91/7/3 113/7/3

f 321/7/3 314/7/3 315/7/3 322/7/3

f 322/7/3 315/7/3 316/7/3 318/7/3

f 257/7/3 317/7/3 223/7/3 258/7/3

f 135/7/3 82/7/3 93/7/3 134/7/3

f 217/2/3 319/2/3 320/2/3 218/2/3

f 323/7/3 321/7/3 322/7/3 324/7/3

f 324/7/3 322/7/3 318/7/3 319/7/3

f 316/2/3 231/2/3 232/2/3 317/2/3

f 207/7/3 323/7/3 324/7/3 221/7/3

f 221/7/3 324/7/3 319/7/3 217/7/3

f 313/3/3 256/3/3 259/3/3 296/3/3

f 204/4/3 260/4/3 263/4/3 251/4/3

f 241/4/3 267/4/3 268/4/3 242/4/3

f 136/3/3 289/3/3 146/3/3 5/3/3

f 272/3/3 269/3/3 138/3/3 1/3/3

f 4/3/4 3/3/4 140/3/4 139/3/4

f 8/3/4 7/3/4 39/3/4 41/3/4

f 12/1/4 11/1/4 325/1/4 326/1/4

f 14/1/4 12/1/4 326/1/4 327/1/4

f 16/1/4 14/1/4 327/1/4 328/1/4

f 18/1/4 16/1/4 328/1/4 329/1/4

f 20/1/4 18/1/4 329/1/4 330/1/4

f 331/1/4 332/1/4 173/1/4 172/1/4

f 332/1/4 333/1/4 174/1/4 173/1/4

f 333/1/4 334/1/4 175/1/4 174/1/4

f 334/1/4 335/1/4 176/1/4 175/1/4

f 335/1/4 336/1/4 177/1/4 176/1/4

f 337/1/4 338/1/4 180/1/4 179/1/4

f 326/1/4 325/1/4 339/1/4 340/1/4

f 327/1/4 326/1/4 340/1/4 341/1/4

f 328/1/4 327/1/4 341/1/4 342/1/4

f 329/1/4 328/1/4 342/1/4 343/1/4

f 330/1/4 329/1/4 343/1/4 344/1/4

f 59/6/4 58/6/4 188/6/4 187/6/4

f 345/1/4 346/1/4 193/1/4 192/1/4

f 63/1/4 62/1/4 347/1/4 348/1/4

f 349/1/4 350/1/4 332/1/4 331/1/4

f 350/1/4 351/1/4 333/1/4 332/1/4

f 351/1/4 352/1/4 334/1/4 333/1/4

f 352/1/4 353/1/4 335/1/4 334/1/4

f 353/1/4 354/1/4 336/1/4 335/1/4

f 67/1/4 66/1/4 338/1/4 337/1/4

f 355/2/4 64/2/4 356/2/4 357/2/4

f 358/1/4 359/1/4 346/1/4 345/1/4

f 360/1/4 361/1/4 350/1/4 349/1/4

f 361/1/4 362/1/4 351/1/4 350/1/4

f 362/1/4 363/1/4 352/1/4 351/1/4

f 363/1/4 364/1/4 353/1/4 352/1/4

f 364/1/4 365/1/4 354/1/4 353/1/4

f 73/6/4 72/6/4 200/6/4 199/6/4

f 357/2/4 356/2/4 178/2/4 203/2/4

f 348/1/4 347/1/4 359/1/4 358/1/4

f 344/1/4 343/1/4 361/1/4 360/1/4

f 343/1/4 342/1/4 362/1/4 361/1/4

f 342/1/4 341/1/4 363/1/4 362/1/4

f 341/1/4 340/1/4 364/1/4 363/1/4

f 340/1/4 339/1/4 365/1/4 364/1/4

f 83/5/4 82/5/4 207/5/4 206/5/4

f 97/4/4 96/4/4 118/4/4 119/4/4

f 102/4/4 98/4/4 131/4/4 114/4/4

f 104/7/4 20/7/4 330/7/4 366/7/4

f 106/7/4 104/7/4 366/7/4 367/7/4

f 108/7/4 106/7/4 367/7/4 368/7/4

f 369/7/4 370/7/4 371/7/4 372/7/4

f 112/7/4 111/7/4 373/7/4 374/7/4

f 117/7/4 112/7/4 374/7/4 375/7/4

f 376/7/4 377/7/4 378/7/4 379/7/4

f 380/7/4 376/7/4 379/7/4 381/7/4

f 382/7/4 383/7/4 254/7/4 253/7/4

f 383/7/4 357/7/4 203/7/4 254/7/4

f 384/7/4 385/7/4 255/7/4 181/7/4

f 385/7/4 331/7/4 172/7/4 255/7/4

f 370/7/4 344/7/4 360/7/4 371/7/4

f 366/7/4 330/7/4 344/7/4 370/7/4

f 367/7/4 366/7/4 370/7/4 369/7/4

f 368/7/4 367/7/4 369/7/4 386/7/4

f 386/7/4 369/7/4 372/7/4 387/7/4

f 374/7/4 373/7/4 377/7/4 376/7/4

f 375/7/4 374/7/4 376/7/4 380/7/4

f 388/7/4 389/7/4 383/7/4 382/7/4

f 389/7/4 355/7/4 357/7/4 383/7/4

f 65/7/4 390/7/4 385/7/4 384/7/4

f 390/7/4 349/7/4 331/7/4 385/7/4

f 381/7/4 379/7/4 389/7/4 388/7/4

f 379/7/4 378/7/4 355/7/4 389/7/4

f 387/7/4 372/7/4 65/7/4 64/7/4

f 372/7/4 371/7/4 390/7/4 65/7/4

f 371/7/4 360/7/4 349/7/4 390/7/4

f 111/2/4 108/2/4 368/2/4 373/2/4

f 373/2/4 368/2/4 386/2/4 377/2/4

f 377/2/4 386/2/4 387/2/4 378/2/4

f 378/2/4 387/2/4 64/2/4 355/2/4

f 178/4/4 181/4/4 262/4/4 261/4/4

f 251/4/4 252/4/4 265/4/4 263/4/4

f 137/3/4 8/3/4 41/3/4 42/3/4

f 149/3/4 4/3/4 139/3/4 270/3/4

f 271/3/5 276/3/5 149/3/5 272/3/5

f 356/1/5 337/1/5 179/1/5 178/1/5

f 45/3/5 47/3/5 86/3/5 85/3/5

f 48/3/5 51/3/5 276/3/5 271/3/5

f 289/3/5 42/3/5 284/3/5 290/3/5

f 52/1/5 55/1/5 90/1/5 89/1/5

f 56/6/5 59/6/5 187/6/5 186/6/5

f 64/1/5 67/1/5 337/1/5 356/1/5

f 70/6/5 73/6/5 199/6/5 198/6/5

f 80/5/5 83/5/5 206/5/5 205/5/5

f 290/3/5 284/3/5 210/3/5 209/3/5

f 225/3/5 224/3/5 214/3/5 213/3/5

f 82/7/5 391/7/5 392/7/5 207/7/5

f 259/3/5 258/3/5 223/3/5 222/3/5

f 94/4/5 97/4/5 119/4/5 126/4/5

f 98/4/5 94/4/5 126/4/5 131/4/5

f 100/4/5 102/4/5 114/4/5 55/4/5

f 219/3/5 218/3/5 320/3/5 313/3/5

f 314/7/5 393/7/5 227/7/5 226/7/5

f 393/7/5 189/7/5 237/7/5 227/7/5

f 116/7/5 117/7/5 375/7/5 394/7/5

f 189/7/5 188/7/5 243/7/5 237/7/5

f 123/7/5 116/7/5 394/7/5 72/7/5

f 188/7/5 395/7/5 249/7/5 243/7/5

f 396/7/5 380/7/5 381/7/5 397/7/5

f 129/7/5 123/7/5 72/7/5 71/7/5

f 395/7/5 382/7/5 253/7/5 249/7/5

f 133/7/5 129/7/5 71/7/5 391/7/5

f 321/7/5 398/7/5 393/7/5 314/7/5

f 135/7/5 133/7/5 391/7/5 82/7/5

f 398/7/5 57/7/5 189/7/5 393/7/5

f 394/7/5 375/7/5 380/7/5 396/7/5

f 58/7/5 399/7/5 395/7/5 188/7/5

f 399/7/5 388/7/5 382/7/5 395/7/5

f 72/7/5 394/7/5 396/7/5 200/7/5

f 323/7/5 400/7/5 398/7/5 321/7/5

f 400/7/5 401/7/5 57/7/5 398/7/5

f 401/7/5 402/7/5 58/7/5 57/7/5

f 402/7/5 397/7/5 399/7/5 58/7/5

f 397/7/5 381/7/5 388/7/5 399/7/5

f 207/7/5 392/7/5 400/7/5 323/7/5

f 392/7/5 201/7/5 401/7/5 400/7/5

f 201/7/5 200/7/5 402/7/5 401/7/5

f 391/7/5 71/7/5 201/7/5 392/7/5

f 200/7/5 396/7/5 397/7/5 402/7/5

f 313/3/5 320/3/5 257/3/5 256/3/5

f 204/4/5 178/4/5 261/4/5 260/4/5

f 247/4/5 251/4/5 263/4/5 264/4/5

f 241/4/5 247/4/5 264/4/5 267/4/5

f 136/3/5 137/3/5 42/3/5 289/3/5

f 272/3/5 149/3/5 270/3/5 269/3/5

f 2/3/6 141/3/6 140/3/6 3/3/6

f 273/3/6 1/3/6 4/3/6 277/3/6

f 6/3/6 147/3/6 39/3/6 7/3/6

f 10/1/6 63/1/6 325/1/6 11/1/6

f 279/1/6 153/1/6 152/1/6 182/1/6

f 22/1/6 60/1/6 63/1/6 10/1/6

f 182/1/6 152/1/6 159/1/6 183/1/6

f 28/1/6 68/1/6 60/1/6 22/1/6

f 183/1/6 159/1/6 165/1/6 190/1/6

f 34/1/6 74/1/6 68/1/6 28/1/6

f 190/1/6 165/1/6 171/1/6 192/1/6

f 192/1/6 171/1/6 177/1/6 336/1/6

f 40/1/6 281/1/6 74/1/6 34/1/6

f 384/1/6 181/1/6 180/1/6 338/1/6

f 46/3/6 286/3/6 285/3/6 44/3/6

f 194/3/6 288/3/6 274/3/6 195/3/6

f 49/3/6 273/3/6 277/3/6 50/3/6

f 146/3/6 291/3/6 282/3/6 41/3/6

f 53/1/6 84/1/6 87/1/6 54/1/6

f 63/1/6 348/1/6 339/1/6 325/1/6

f 293/1/6 279/1/6 182/1/6 294/1/6

f 295/1/6 185/1/6 184/1/6 403/1/6

f 403/1/6 184/1/6 191/1/6 404/1/6

f 404/1/6 191/1/6 193/1/6 346/1/6

f 61/1/6 405/1/6 347/1/6 62/1/6

f 345/1/6 192/1/6 336/1/6 354/1/6

f 65/1/6 384/1/6 338/1/6 66/1/6

f 299/3/6 197/3/6 196/3/6 300/3/6

f 69/1/6 406/1/6 405/1/6 61/1/6

f 304/1/6 293/1/6 294/1/6 305/1/6

f 306/1/6 295/1/6 403/1/6 407/1/6

f 407/1/6 403/1/6 404/1/6 408/1/6

f 408/1/6 404/1/6 346/1/6 359/1/6

f 358/1/6 345/1/6 354/1/6 365/1/6

f 75/1/6 308/1/6 406/1/6 69/1/6

f 77/3/6 299/3/6 300/3/6 78/3/6

f 312/1/6 304/1/6 305/1/6 307/1/6

f 308/1/6 306/1/6 407/1/6 406/1/6

f 406/1/6 407/1/6 408/1/6 405/1/6

f 405/1/6 408/1/6 359/1/6 347/1/6

f 281/1/6 312/1/6 307/1/6 74/1/6

f 348/1/6 358/1/6 365/1/6 339/1/6

f 291/3/6 212/3/6 211/3/6 282/3/6

f 286/3/6 76/3/6 79/3/6 285/3/6

f 288/3/6 215/3/6 142/3/6 274/3/6

f 95/4/6 124/4/6 118/4/6 96/4/6

f 99/4/6 130/4/6 124/4/6 95/4/6

f 101/4/6 54/4/6 131/4/6 98/4/6

f 251/4/6 263/4/6 262/4/6 181/4/6

f 248/4/6 266/4/6 265/4/6 252/4/6

f 242/4/6 268/4/6 266/4/6 248/4/6

# numNormals 6
# numTexCoords 8
# numVerts 408
# numFaces 410
