# MagicaVoxel @ ephtracy

# material
mtllib yuusha.mtl

# normals
vn -1 0 0
vn 1 0 0
vn 0 0 1
vn 0 0 -1
vn 0 -1 0
vn 0 1 0

# texcoords
vt 0.00195313 0.5
vt 0.0332031 0.5
vt 0.0371094 0.5
vt 0.0449219 0.5
vt 0.0605469 0.5
vt 0.634766 0.5
vt 0.638672 0.5
vt 0.962891 0.5
vt 0.994141 0.5

# verts
v -3 2 1
v -3 3 1
v -3 3 -0
v -3 2 -0
v -4 8 -3
v -4 9 -3
v -4 9 -4
v -4 8 -4
v -4 9 -2
v -4 10 -2
v -4 10 -3
v -4 8 -2
v -4 10 -1
v -4 11 -1
v -4 11 -2
v -4 9 -1
v -3 11 1
v -3 12 1
v -3 12 -0
v -3 11 -0
v -4 10 -0
v -4 11 -0
v -4 10 1
v -4 11 1
v -4 8 -0
v -4 9 -0
v -4 8 -1
v -4 5 1
v -4 6 1
v -4 6 -0
v -4 5 -0
v -3 11 -2
v -3 12 -2
v -3 12 -3
v -3 11 -3
v -3 10 -2
v -3 10 -3
v -3 7 -2
v -3 8 -2
v -3 8 -3
v -3 7 -3
v -2 6 2
v -2 7 2
v -2 7 1
v -2 6 1
v -3 12 -1
v -3 13 -1
v -3 13 -2
v -3 8 -1
v -3 9 -1
v -3 9 -2
v -3 7 -1
v -3 13 -0
v -3 7 -0
v -3 8 -0
v -3 6 -0
v -3 6 -1
v -3 9 1
v -3 10 1
v -3 10 -0
v -3 9 -0
v -3 8 1
v -3 6 1
v -3 7 1
v -3 9 2
v -3 10 2
v -2 11 -3
v -2 12 -3
v -2 12 -4
v -2 11 -4
v -2 10 -3
v -2 10 -4
v -2 9 -3
v -2 9 -4
v -2 8 -3
v -2 8 -4
v -2 7 -3
v -2 7 -4
v -2 12 -2
v -2 13 -2
v -2 13 -3
v -2 6 -2
v -2 7 -2
v -2 6 -3
v -2 13 -1
v -2 14 -1
v -2 14 -2
v -2 6 -1
v -2 7 -1
v -2 3 1
v -2 4 1
v -2 4 -0
v -2 3 -0
v -4 6 -1
v -4 5 -1
v -2 13 -0
v -2 14 -0
v -2 4 -1
v -2 3 -1
v -2 1 -0
v -2 2 -0
v -2 2 -1
v -2 1 -1
v -2 0 -0
v -2 0 -1
v -2 12 1
v -2 13 1
v -2 12 -0
v -6 13 1
v -6 14 1
v -6 14 -0
v -6 13 -0
v -1 10 -4
v -1 11 -4
v -1 11 -5
v -1 10 -5
v -1 9 -4
v -1 9 -5
v -1 8 -4
v -1 8 -5
v -3 3 -1
v -3 2 -1
v -2 11 2
v -2 12 2
v -2 11 1
v 4 2 2
v 4 3 2
v 4 3 1
v 4 2 1
v -3 11 -1
v -2 8 1
v -2 8 -0
v -2 7 -0
v -2 10 3
v -2 11 3
v -2 10 2
v -3 4 -1
v -3 5 -1
v -3 5 -2
v -3 4 -2
v 1 1 -0
v 1 2 -0
v 1 2 -1
v 1 1 -1
v 1 0 -0
v 1 0 -1
v -6 4 1
v -6 5 1
v -6 5 -0
v -6 4 -0
v -4 12 -0
v -4 12 -1
v 1 6 2
v 1 7 2
v 1 7 1
v 1 6 1
v -3 11 2
v -3 3 -2
v -3 2 -2
v 2 9 2
v 2 10 2
v 2 10 1
v 2 9 1
v -4 4 -0
v -4 4 -1
v 3 8 -3
v 3 9 -3
v 3 9 -4
v 3 8 -4
v -1 3 -1
v -1 4 -1
v -1 4 -2
v -1 3 -2
v -6 6 1
v -6 6 -0
v -6 5 2
v -6 6 2
v -6 6 -1
v -6 5 -1
v -6 7 1
v -6 7 -0
v -6 8 1
v -6 8 -0
v -6 9 1
v -6 9 -0
v -6 10 1
v -6 10 -0
v -6 11 1
v -6 11 -0
v -6 3 1
v -6 3 -0
v -6 12 1
v -6 12 -0
v 3 4 2
v 3 5 2
v 3 5 1
v 3 4 1
v 3 6 2
v 3 6 1
v 4 6 2
v 4 7 2
v 4 7 1
v 4 6 1
v 3 3 2
v 3 3 1
v -4 6 -2
v -4 5 -2
v 3 4 -1
v 3 4 -2
v 3 5 -2
v 3 5 -1
v -3 8 -4
v -3 9 -4
v -3 9 -3
v -1 6 2
v -1 6 1
v -1 7 1
v -1 7 2
v 2 11 2
v 2 11 1
v 2 12 1
v 2 12 2
v 3 11 1
v 3 11 -0
v 3 12 -0
v 3 12 1
v 4 5 1
v 4 5 -0
v 4 6 -0
v -2 9 2
v -2 9 1
v -2 10 1
v 8 3 2
v 8 3 1
v 8 4 1
v 8 4 2
v -1 1 -0
v -1 1 -1
v -1 2 -1
v -1 2 -0
v -1 0 -0
v -1 0 -1
v -5 13 1
v -5 13 -0
v -5 14 -0
v -5 14 1
v 8 5 2
v 8 5 1
v 8 6 1
v 8 6 2
v 4 10 1
v 4 10 -0
v 4 11 -0
v 4 11 1
v 2 3 1
v 2 3 -0
v 2 4 -0
v 2 4 1
v 4 9 -0
v 4 9 -1
v 4 10 -1
v 3 10 2
v 3 10 1
v 3 11 2
v 7 2 2
v 7 2 1
v 7 3 1
v 7 3 2
v 1 10 -4
v 1 10 -5
v 1 11 -5
v 1 11 -4
v 1 9 -4
v 1 9 -5
v 1 8 -4
v 1 8 -5
v 3 11 -1
v 3 11 -2
v 3 12 -2
v 3 12 -1
v 4 11 -1
v 4 8 -2
v 4 8 -3
v 4 9 -3
v 4 9 -2
v 2 3 -1
v 2 4 -1
v 4 5 -1
v 4 6 -1
v 2 11 -3
v 2 11 -4
v 2 12 -4
v 2 12 -3
v 2 10 -3
v 2 10 -4
v 2 9 -3
v 2 9 -4
v 2 8 -3
v 2 8 -4
v 2 7 -3
v 2 7 -4
v 2 12 -2
v 2 13 -3
v 2 13 -2
v 2 6 -2
v 2 6 -3
v 2 7 -2
v 2 13 -1
v 2 14 -2
v 2 14 -1
v 2 6 -1
v 2 7 -1
v 2 13 -0
v 2 14 -0
v 2 1 -0
v 2 1 -1
v 2 2 -1
v 2 2 -0
v 2 0 -0
v 2 0 -1
v 2 12 -0
v 2 13 1
v 2 7 1
v 2 7 -0
v 2 8 -0
v 2 8 1
v 4 8 -0
v 4 8 -1
v 4 10 -2
v 4 11 -2
v 2 10 3
v 2 11 3
v 3 10 -2
v 3 10 -3
v 3 11 -3
v 3 7 -2
v 3 7 -3
v 3 8 -2
v 2 6 2
v 2 6 1
v 2 7 2
v 3 13 -2
v 3 13 -1
v 3 8 -1
v 3 9 -2
v 3 9 -1
v 3 7 -1
v 4 12 -1
v 4 12 -0
v 3 13 -0
v 3 7 -0
v 3 8 -0
v 3 6 -0
v 3 6 -1
v 4 10 -3
v 3 9 1
v 3 9 -0
v 3 10 -0
v 3 8 1
v 3 7 1
v 3 12 -3
v 3 9 2
v 4 8 -4
v 4 9 -4
v 3 2 1
v 3 2 -0
v 3 3 -0
v 3 2 -1
v 3 3 -1
v 3 2 -2
v 3 3 -2
v 6 4 1
v 6 4 -0
v 6 5 -0
v 6 5 1
v 1 3 -1
v 1 3 -2
v 1 4 -2
v 1 4 -1
v -5 5 1
v -5 5 -0
v -5 6 -0
v -5 6 1
v -5 5 2
v -5 6 2
v -5 5 -1
v -5 6 -1
v -5 7 -0
v -5 7 1
v -5 8 -0
v -5 8 1
v -5 9 -0
v -5 9 1
v -5 10 -0
v -5 10 1
v -5 11 -0
v -5 11 1
v -5 3 1
v -5 3 -0
v -5 4 -0
v -5 4 1
v -5 12 -0
v -5 12 1
v 4 4 -0
v 4 4 -1
v 7 6 2
v 7 6 1
v 7 7 1
v 7 7 2
v 4 5 -2
v 4 6 -2
v -2 2 1
v 0 2 1
v 1 2 1
v 1 3 1
v 0 3 1
v -1 2 1
v -1 3 1
v -3 5 1
v -2 5 1
v -3 4 1
v 2 5 1
v 1 11 2
v 1 12 2
v 0 4 1
v 1 4 1
v 1 5 1
v 0 5 1
v -1 4 1
v -1 5 1
v -1 12 1
v 0 12 1
v 0 13 1
v -1 13 1
v 7 4 2
v -1 13 -0
v -1 14 -0
v -1 9 1
v -1 10 1
v -1 8 1
v 7 5 2
v 1 12 1
v 1 13 1
v 0 6 1
v 0 7 1
v 0 13 -0
v 0 14 -0
v 0 9 1
v 0 10 1
v 0 8 1
v 6 2 2
v 6 3 2
v -1 10 3
v 0 10 3
v 0 11 3
v -1 11 3
v 1 13 -0
v 1 14 -0
v -1 11 2
v -1 12 2
v 1 9 1
v 1 10 1
v 1 8 1
v 5 2 2
v 5 3 2
v -4 4 1
v 1 10 3
v 1 11 3
v 2 2 1
v 0 11 2
v 0 12 2
v 5 4 2
v 6 4 2
v 6 5 2
v 5 5 2
v 6 6 2
v 5 6 2
v 4 4 2
v 4 5 2
v 6 7 2
v 5 7 2
v 2 4 -2
v 2 5 -2
v -3 6 -2
v -2 5 -2
v 7 4 1
v -1 12 -4
v -1 7 -4
v -1 13 -3
v -1 12 -3
v -1 7 -3
v -1 6 -3
v -1 14 -2
v -1 13 -2
v -1 6 -2
v -1 5 -2
v 7 5 1
v 1 5 -2
v 0 11 -5
v 0 10 -5
v 0 9 -5
v 0 8 -5
v 0 12 -4
v 0 11 -4
v 0 8 -4
v 0 7 -4
v 0 13 -3
v 0 12 -3
v 0 7 -3
v 0 6 -3
v 0 14 -2
v 0 13 -2
v 0 6 -2
v 0 5 -2
v -2 2 -2
v -2 3 -2
v -1 2 -2
v 0 2 -2
v 0 3 -2
v 1 2 -2
v 0 4 -2
v -2 4 -2
v 2 3 -2
v 2 2 -2
v 6 2 1
v 6 3 1
v 1 12 -4
v 1 7 -4
v 1 13 -3
v 1 12 -3
v 1 7 -3
v 1 6 -3
v 1 14 -2
v 1 13 -2
v 1 6 -2
v 5 3 1
v 5 2 1
v 3 6 -2
v 5 4 -0
v 5 5 -0
v 5 5 1
v 5 6 1
v 6 6 1
v 5 4 1
v 5 7 1
v 6 7 1
v 4 4 1
v 0 2 -0
v 0 2 -1
v -3 4 -0
v 3 4 -0
v -1 10 2
v 0 10 2
v 1 10 2
v -1 14 -1
v 0 14 -1
v 1 14 -1

# faces

usemtl palette

f 1/6/1 2/6/1 3/6/1 4/6/1

f 5/6/1 6/6/1 7/6/1 8/6/1

f 9/6/1 10/6/1 11/6/1 6/6/1

f 12/6/1 9/6/1 6/6/1 5/6/1

f 13/6/1 14/6/1 15/6/1 10/6/1

f 16/6/1 13/6/1 10/6/1 9/6/1

f 17/6/1 18/6/1 19/6/1 20/6/1

f 21/6/1 22/6/1 14/6/1 13/6/1

f 23/1/1 24/1/1 22/1/1 21/1/1

f 25/5/1 26/5/1 16/5/1 27/5/1

f 28/6/1 29/6/1 30/6/1 31/6/1

f 32/6/1 33/6/1 34/6/1 35/6/1

f 36/6/1 32/6/1 35/6/1 37/6/1

f 38/6/1 39/6/1 40/6/1 41/6/1

f 42/1/1 43/1/1 44/1/1 45/1/1

f 46/6/1 47/6/1 48/6/1 33/6/1

f 49/6/1 50/6/1 51/6/1 39/6/1

f 52/6/1 49/6/1 39/6/1 38/6/1

f 19/6/1 53/6/1 47/6/1 46/6/1

f 54/6/1 55/6/1 49/6/1 52/6/1

f 56/1/1 54/1/1 52/1/1 57/1/1

f 58/6/1 59/6/1 60/6/1 61/6/1

f 62/6/1 58/6/1 61/6/1 55/6/1

f 63/1/1 64/1/1 54/1/1 56/1/1

f 65/6/1 66/6/1 59/6/1 58/6/1

f 67/6/1 68/6/1 69/6/1 70/6/1

f 71/6/1 67/6/1 70/6/1 72/6/1

f 73/6/1 71/6/1 72/6/1 74/6/1

f 75/6/1 73/6/1 74/6/1 76/6/1

f 77/6/1 75/6/1 76/6/1 78/6/1

f 79/6/1 80/6/1 81/6/1 68/6/1

f 82/1/1 83/1/1 77/1/1 84/1/1

f 85/6/1 86/6/1 87/6/1 80/6/1

f 88/6/1 89/6/1 83/6/1 82/6/1

f 90/1/1 91/1/1 92/1/1 93/1/1

f 31/6/1 30/6/1 94/6/1 95/6/1

f 96/6/1 97/6/1 86/6/1 85/6/1

f 93/6/1 92/6/1 98/6/1 99/6/1

f 100/8/1 101/8/1 102/8/1 103/8/1

f 104/6/1 100/6/1 103/6/1 105/6/1

f 106/6/1 107/6/1 96/6/1 108/6/1

f 109/1/1 110/1/1 111/1/1 112/1/1

f 113/6/1 114/6/1 115/6/1 116/6/1

f 117/6/1 113/6/1 116/6/1 118/6/1

f 119/6/1 117/6/1 118/6/1 120/6/1

f 4/6/1 3/6/1 121/6/1 122/6/1

f 123/1/1 124/1/1 106/1/1 125/1/1

f 126/4/1 127/4/1 128/4/1 129/4/1

f 130/6/1 46/6/1 33/6/1 32/6/1

f 44/2/1 131/2/1 132/2/1 133/2/1

f 134/6/1 135/6/1 123/6/1 136/6/1

f 137/6/1 138/6/1 139/6/1 140/6/1

f 141/8/1 142/8/1 143/8/1 144/8/1

f 145/7/1 141/7/1 144/7/1 146/7/1

f 147/2/1 148/2/1 149/2/1 150/2/1

f 22/6/1 151/6/1 152/6/1 14/6/1

f 153/1/1 154/1/1 155/1/1 156/1/1

f 66/1/1 157/1/1 17/1/1 59/1/1

f 26/1/1 21/1/1 13/1/1 16/1/1

f 122/6/1 121/6/1 158/6/1 159/6/1

f 160/6/1 161/6/1 162/6/1 163/6/1

f 164/1/1 31/1/1 95/1/1 165/1/1

f 166/6/1 167/6/1 168/6/1 169/6/1

f 170/6/1 171/6/1 172/6/1 173/6/1

f 148/1/1 174/1/1 175/1/1 149/1/1

f 176/4/1 177/4/1 174/4/1 148/4/1

f 149/4/1 175/4/1 178/4/1 179/4/1

f 174/4/1 180/4/1 181/4/1 175/4/1

f 180/1/1 182/1/1 183/1/1 181/1/1

f 182/1/1 184/1/1 185/1/1 183/1/1

f 184/1/1 186/1/1 187/1/1 185/1/1

f 186/1/1 188/1/1 189/1/1 187/1/1

f 190/1/1 147/1/1 150/1/1 191/1/1

f 188/1/1 192/1/1 193/1/1 189/1/1

f 192/1/1 109/1/1 112/1/1 193/1/1

f 194/1/1 195/1/1 196/1/1 197/1/1

f 195/4/1 198/4/1 199/4/1 196/4/1

f 200/4/1 201/4/1 202/4/1 203/4/1

f 204/4/1 194/4/1 197/4/1 205/4/1

f 95/1/1 94/1/1 206/1/1 207/1/1

f 208/6/2 209/6/2 210/6/2 211/6/2

f 40/6/2 212/6/2 213/6/2 214/6/2

f 215/1/2 216/1/2 217/1/2 218/1/2

f 219/1/2 220/1/2 221/1/2 222/1/2

f 223/6/2 224/6/2 225/6/2 226/6/2

f 227/6/2 228/6/2 229/6/2 203/6/2

f 230/6/2 231/6/2 232/6/2 136/6/2

f 233/4/2 234/4/2 235/4/2 236/4/2

f 237/8/2 238/8/2 239/8/2 240/8/2

f 241/6/2 242/6/2 238/6/2 237/6/2

f 243/1/2 244/1/2 245/1/2 246/1/2

f 247/4/2 248/4/2 249/4/2 250/4/2

f 251/1/2 252/1/2 253/1/2 254/1/2

f 255/1/2 256/1/2 257/1/2 258/1/2

f 259/1/2 260/1/2 261/1/2 252/1/2

f 262/1/2 263/1/2 223/1/2 264/1/2

f 265/4/2 266/4/2 267/4/2 268/4/2

f 269/6/2 270/6/2 271/6/2 272/6/2

f 273/6/2 274/6/2 270/6/2 269/6/2

f 275/6/2 276/6/2 274/6/2 273/6/2

f 277/6/2 278/6/2 279/6/2 280/6/2

f 252/6/2 261/6/2 281/6/2 253/6/2

f 282/6/2 283/6/2 284/6/2 285/6/2

f 256/6/2 286/6/2 287/6/2 257/6/2

f 228/6/2 288/6/2 289/6/2 229/6/2

f 290/6/2 291/6/2 292/6/2 293/6/2

f 294/6/2 295/6/2 291/6/2 290/6/2

f 296/6/2 297/6/2 295/6/2 294/6/2

f 298/6/2 299/6/2 297/6/2 296/6/2

f 300/6/2 301/6/2 299/6/2 298/6/2

f 302/6/2 293/6/2 303/6/2 304/6/2

f 305/1/2 306/1/2 300/1/2 307/1/2

f 308/6/2 304/6/2 309/6/2 310/6/2

f 311/6/2 305/6/2 307/6/2 312/6/2

f 313/6/2 308/6/2 310/6/2 314/6/2

f 315/8/2 316/8/2 317/8/2 318/8/2

f 319/7/2 320/7/2 316/7/2 315/7/2

f 221/6/2 321/6/2 313/6/2 322/6/2

f 323/2/2 324/2/2 325/2/2 326/2/2

f 327/5/2 328/5/2 260/5/2 259/5/2

f 261/6/2 329/6/2 330/6/2 281/6/2

f 331/6/2 161/6/2 219/6/2 332/6/2

f 333/6/2 334/6/2 335/6/2 278/6/2

f 336/6/2 337/6/2 166/6/2 338/6/2

f 339/1/2 340/1/2 323/1/2 341/1/2

f 280/6/2 279/6/2 342/6/2 343/6/2

f 344/6/2 338/6/2 345/6/2 346/6/2

f 347/6/2 336/6/2 338/6/2 344/6/2

f 253/6/2 281/6/2 348/6/2 349/6/2

f 225/6/2 280/6/2 343/6/2 350/6/2

f 351/6/2 347/6/2 344/6/2 352/6/2

f 353/1/2 354/1/2 347/1/2 351/1/2

f 285/6/2 284/6/2 355/6/2 329/6/2

f 260/6/2 285/6/2 329/6/2 261/6/2

f 356/6/2 357/6/2 358/6/2 263/6/2

f 359/6/2 352/6/2 357/6/2 356/6/2

f 199/1/2 353/1/2 351/1/2 360/1/2

f 278/6/2 335/6/2 361/6/2 279/6/2

f 362/6/2 356/6/2 263/6/2 262/6/2

f 283/6/2 363/6/2 364/6/2 284/6/2

f 365/6/2 366/6/2 367/6/2 205/6/2

f 366/6/2 368/6/2 369/6/2 367/6/2

f 368/6/2 370/6/2 371/6/2 369/6/2

f 372/2/2 373/2/2 374/2/2 375/2/2

f 376/6/2 377/6/2 378/6/2 379/6/2

f 380/1/2 381/1/2 382/1/2 383/1/2

f 384/4/2 380/4/2 383/4/2 385/4/2

f 381/4/2 386/4/2 387/4/2 382/4/2

f 383/4/2 382/4/2 388/4/2 389/4/2

f 389/1/2 388/1/2 390/1/2 391/1/2

f 391/1/2 390/1/2 392/1/2 393/1/2

f 393/1/2 392/1/2 394/1/2 395/1/2

f 395/1/2 394/1/2 396/1/2 397/1/2

f 398/1/2 399/1/2 400/1/2 401/1/2

f 397/1/2 396/1/2 402/1/2 403/1/2

f 403/1/2 402/1/2 244/1/2 243/1/2

f 404/1/2 405/1/2 288/1/2 228/1/2

f 236/1/2 235/1/2 248/1/2 247/1/2

f 406/4/2 407/4/2 408/4/2 409/4/2

f 288/1/2 410/1/2 411/1/2 289/1/2

f 1/6/3 412/6/3 90/6/3 2/6/3

f 413/1/3 414/1/3 415/1/3 416/1/3

f 417/1/3 413/1/3 416/1/3 418/1/3

f 419/6/3 420/6/3 45/6/3 63/6/3

f 12/6/3 39/6/3 51/6/3 9/6/3

f 17/6/3 125/6/3 106/6/3 18/6/3

f 23/1/3 59/1/3 17/1/3 24/1/3

f 25/5/3 55/5/3 61/5/3 26/5/3

f 28/6/3 419/6/3 63/6/3 29/6/3

f 421/6/3 91/6/3 420/6/3 419/6/3

f 258/6/3 197/6/3 196/6/3 422/6/3

f 42/1/3 215/1/3 218/1/3 43/1/3

f 423/1/3 219/1/3 222/1/3 424/1/3

f 220/6/3 223/6/3 226/6/3 221/6/3

f 19/6/3 108/6/3 96/6/3 53/6/3

f 54/6/3 133/6/3 132/6/3 55/6/3

f 425/1/3 426/1/3 427/1/3 428/1/3

f 429/1/3 425/1/3 428/1/3 430/1/3

f 422/6/3 196/6/3 199/6/3 340/6/3

f 431/1/3 432/1/3 433/1/3 434/1/3

f 62/6/3 131/6/3 231/6/3 58/6/3

f 63/1/3 45/1/3 44/1/3 64/1/3

f 65/6/3 230/6/3 136/6/3 66/6/3

f 268/4/3 233/4/3 236/4/3 435/4/3

f 90/1/3 418/1/3 429/1/3 91/1/3

f 91/6/3 429/6/3 430/6/3 420/6/3

f 96/6/3 436/6/3 437/6/3 97/6/3

f 100/8/3 237/8/3 240/8/3 101/8/3

f 104/6/3 241/6/3 237/6/3 100/6/3

f 106/6/3 431/6/3 434/6/3 107/6/3

f 231/6/3 438/6/3 439/6/3 232/6/3

f 131/9/3 440/9/3 438/9/3 231/9/3

f 109/1/3 243/1/3 246/1/3 110/1/3

f 441/4/3 247/4/3 250/4/3 406/4/3

f 432/1/3 442/1/3 443/1/3 433/1/3

f 444/2/3 156/2/3 155/2/3 445/2/3

f 263/1/3 251/1/3 254/1/3 223/1/3

f 415/1/3 255/1/3 258/1/3 426/1/3

f 420/6/3 430/6/3 216/6/3 45/6/3

f 436/6/3 446/6/3 447/6/3 437/6/3

f 357/1/3 259/1/3 252/1/3 358/1/3

f 426/6/3 258/6/3 422/6/3 427/6/3

f 438/6/3 448/6/3 449/6/3 439/6/3

f 440/2/3 450/2/3 448/2/3 438/2/3

f 161/1/3 262/1/3 264/1/3 219/1/3

f 451/4/3 265/4/3 268/4/3 452/4/3

f 453/6/3 454/6/3 455/6/3 456/6/3

f 428/6/3 427/6/3 156/6/3 444/6/3

f 430/6/3 428/6/3 444/6/3 216/6/3

f 412/6/3 417/6/3 418/6/3 90/6/3

f 446/6/3 457/6/3 458/6/3 447/6/3

f 123/1/3 459/1/3 460/1/3 124/1/3

f 448/6/3 461/6/3 462/6/3 449/6/3

f 450/2/3 463/2/3 461/2/3 448/2/3

f 445/2/3 155/2/3 463/2/3 450/2/3

f 126/4/3 464/4/3 465/4/3 127/4/3

f 466/1/3 421/1/3 419/1/3 28/1/3

f 338/6/3 282/6/3 285/6/3 345/6/3

f 44/2/3 217/2/3 440/2/3 131/2/3

f 454/6/3 467/6/3 468/6/3 455/6/3

f 414/6/3 469/6/3 255/6/3 415/6/3

f 427/6/3 422/6/3 340/6/3 156/6/3

f 134/6/3 453/6/3 456/6/3 135/6/3

f 457/6/3 313/6/3 314/6/3 458/6/3

f 141/8/3 315/8/3 318/8/3 142/8/3

f 145/7/3 319/7/3 315/7/3 141/7/3

f 442/6/3 221/6/3 322/6/3 443/6/3

f 461/6/3 163/6/3 162/6/3 462/6/3

f 463/9/3 326/9/3 163/9/3 461/9/3

f 155/2/3 323/2/3 326/2/3 463/2/3

f 352/5/3 327/5/3 259/5/3 357/5/3

f 147/2/3 401/2/3 380/2/3 148/2/3

f 217/2/3 445/2/3 450/2/3 440/2/3

f 216/2/3 444/2/3 445/2/3 217/2/3

f 467/6/3 331/6/3 332/6/3 468/6/3

f 22/6/3 20/6/3 19/6/3 151/6/3

f 153/1/3 339/1/3 341/1/3 154/1/3

f 66/1/3 136/1/3 123/1/3 157/1/3

f 224/6/3 253/6/3 349/6/3 225/6/3

f 321/6/3 225/6/3 350/6/3 313/6/3

f 324/6/3 351/6/3 352/6/3 325/6/3

f 26/1/3 61/1/3 60/1/3 21/1/3

f 326/6/3 359/6/3 356/6/3 163/6/3

f 340/1/3 199/1/3 360/1/3 323/1/3

f 160/6/3 362/6/3 262/6/3 161/6/3

f 469/6/3 365/6/3 205/6/3 255/6/3

f 459/4/3 470/4/3 471/4/3 460/4/3

f 470/4/3 423/4/3 424/4/3 471/4/3

f 418/4/3 416/4/3 425/4/3 429/4/3

f 416/4/3 415/4/3 426/4/3 425/4/3

f 401/6/3 466/6/3 28/6/3 380/6/3

f 176/4/3 384/4/3 385/4/3 177/4/3

f 174/4/3 383/4/3 389/4/3 180/4/3

f 180/1/3 389/1/3 391/1/3 182/1/3

f 182/1/3 391/1/3 393/1/3 184/1/3

f 184/1/3 393/1/3 395/1/3 186/1/3

f 186/1/3 395/1/3 397/1/3 188/1/3

f 190/1/3 398/1/3 401/1/3 147/1/3

f 188/1/3 397/1/3 403/1/3 192/1/3

f 192/1/3 403/1/3 243/1/3 109/1/3

f 472/4/3 473/4/3 474/4/3 475/4/3

f 475/4/3 474/4/3 476/4/3 477/4/3

f 478/4/3 472/4/3 475/4/3 479/4/3

f 465/4/3 452/4/3 473/4/3 472/4/3

f 473/4/3 435/4/3 441/4/3 474/4/3

f 477/1/3 476/1/3 480/1/3 481/1/3

f 474/1/3 441/1/3 406/1/3 476/1/3

f 435/1/3 236/1/3 247/1/3 441/1/3

f 452/1/3 268/1/3 435/1/3 473/1/3

f 464/1/3 451/1/3 452/1/3 465/1/3

f 127/1/3 465/1/3 472/1/3 478/1/3

f 194/1/3 478/1/3 479/1/3 195/1/3

f 479/1/3 475/1/3 477/1/3 200/1/3

f 195/4/3 479/4/3 200/4/3 198/4/3

f 200/4/3 477/4/3 481/4/3 201/4/3

f 476/4/3 406/4/3 409/4/3 480/4/3

f 204/4/3 127/4/3 478/4/3 194/4/3

f 482/6/4 483/6/4 210/6/4 209/6/4

f 8/6/4 7/6/4 213/6/4 212/6/4

f 6/6/4 11/6/4 37/6/4 214/6/4

f 10/6/4 15/6/4 32/6/4 36/6/4

f 27/5/4 16/5/4 50/5/4 49/5/4

f 35/6/4 34/6/4 68/6/4 67/6/4

f 37/6/4 35/6/4 67/6/4 71/6/4

f 214/6/4 37/6/4 71/6/4 73/6/4

f 40/6/4 214/6/4 73/6/4 75/6/4

f 41/6/4 40/6/4 75/6/4 77/6/4

f 33/6/4 48/6/4 80/6/4 79/6/4

f 139/1/4 484/1/4 82/1/4 485/1/4

f 57/1/4 52/1/4 89/1/4 88/1/4

f 267/4/4 486/4/4 235/4/4 234/4/4

f 70/6/4 69/6/4 487/6/4 114/6/4

f 72/6/4 70/6/4 114/6/4 113/6/4

f 74/6/4 72/6/4 113/6/4 117/6/4

f 76/6/4 74/6/4 117/6/4 119/6/4

f 78/6/4 76/6/4 119/6/4 488/6/4

f 68/6/4 81/6/4 489/6/4 490/6/4

f 84/1/4 77/1/4 491/1/4 492/1/4

f 80/6/4 87/6/4 493/6/4 494/6/4

f 485/6/4 82/6/4 495/6/4 496/6/4

f 99/6/4 98/6/4 171/6/4 170/6/4

f 103/8/4 102/8/4 239/8/4 238/8/4

f 105/6/4 103/6/4 238/6/4 242/6/4

f 112/1/4 111/1/4 245/1/4 244/1/4

f 497/4/4 407/4/4 249/4/4 248/4/4

f 378/6/4 498/6/4 483/6/4 482/6/4

f 116/6/4 115/6/4 499/6/4 500/6/4

f 118/6/4 116/6/4 500/6/4 501/6/4

f 120/6/4 118/6/4 501/6/4 502/6/4

f 114/6/4 487/6/4 503/6/4 504/6/4

f 488/6/4 119/6/4 505/6/4 506/6/4

f 490/6/4 489/6/4 507/6/4 508/6/4

f 492/1/4 491/1/4 509/1/4 510/1/4

f 494/6/4 493/6/4 511/6/4 512/6/4

f 496/6/4 495/6/4 513/6/4 514/6/4

f 515/6/4 516/6/4 173/6/4 517/6/4

f 518/6/4 519/6/4 377/6/4 520/6/4

f 521/6/4 514/6/4 498/6/4 378/6/4

f 172/6/4 496/6/4 514/6/4 521/6/4

f 522/6/4 485/6/4 496/6/4 172/6/4

f 520/6/4 377/6/4 523/6/4 524/6/4

f 525/4/4 526/4/4 267/4/4 266/4/4

f 500/6/4 499/6/4 271/6/4 270/6/4

f 501/6/4 500/6/4 270/6/4 274/6/4

f 502/6/4 501/6/4 274/6/4 276/6/4

f 504/6/4 503/6/4 527/6/4 272/6/4

f 506/6/4 505/6/4 275/6/4 528/6/4

f 508/6/4 507/6/4 529/6/4 530/6/4

f 510/1/4 509/1/4 531/1/4 532/1/4

f 512/6/4 511/6/4 533/6/4 534/6/4

f 514/6/4 513/6/4 535/6/4 498/6/4

f 129/4/4 128/4/4 536/4/4 537/4/4

f 376/6/4 379/6/4 287/6/4 286/6/4

f 517/6/4 173/6/4 519/6/4 518/6/4

f 272/6/4 527/6/4 292/6/4 291/6/4

f 269/6/4 272/6/4 291/6/4 295/6/4

f 273/6/4 269/6/4 295/6/4 297/6/4

f 275/6/4 273/6/4 297/6/4 299/6/4

f 528/6/4 275/6/4 299/6/4 301/6/4

f 530/6/4 529/6/4 303/6/4 293/6/4

f 532/1/4 531/1/4 300/1/4 306/1/4

f 534/6/4 533/6/4 309/6/4 304/6/4

f 498/6/4 535/6/4 305/6/4 483/6/4

f 140/6/4 139/6/4 485/6/4 522/6/4

f 144/8/4 143/8/4 317/8/4 316/8/4

f 146/7/4 144/7/4 316/7/4 320/7/4

f 344/5/4 346/5/4 260/5/4 328/5/4

f 333/6/4 278/6/4 330/6/4 329/6/4

f 150/2/4 149/2/4 381/2/4 400/2/4

f 14/6/4 152/6/4 46/6/4 130/6/4

f 294/6/4 290/6/4 335/6/4 334/6/4

f 296/6/4 294/6/4 334/6/4 167/6/4

f 298/6/4 296/6/4 167/6/4 166/6/4

f 300/6/4 298/6/4 166/6/4 337/6/4

f 302/6/4 304/6/4 342/6/4 279/6/4

f 277/6/4 280/6/4 348/6/4 281/6/4

f 483/1/4 305/1/4 538/1/4 210/1/4

f 311/1/4 312/1/4 347/1/4 354/1/4

f 167/6/4 334/6/4 355/6/4 284/6/4

f 159/6/4 158/6/4 516/6/4 515/6/4

f 290/6/4 293/6/4 361/6/4 335/6/4

f 165/1/4 95/1/4 138/1/4 137/1/4

f 169/6/4 168/6/4 364/6/4 363/6/4

f 524/6/4 523/6/4 371/6/4 370/6/4

f 539/2/4 540/2/4 374/2/4 373/2/4

f 400/6/4 381/6/4 31/6/4 164/6/4

f 404/6/4 228/6/4 540/6/4 539/6/4

f 173/6/4 172/6/4 521/6/4 519/6/4

f 519/6/4 521/6/4 378/6/4 377/6/4

f 179/4/4 178/4/4 387/4/4 386/4/4

f 175/4/4 181/4/4 388/4/4 382/4/4

f 181/1/4 183/1/4 390/1/4 388/1/4

f 183/1/4 185/1/4 392/1/4 390/1/4

f 185/1/4 187/1/4 394/1/4 392/1/4

f 187/1/4 189/1/4 396/1/4 394/1/4

f 191/1/4 150/1/4 400/1/4 399/1/4

f 189/1/4 193/1/4 402/1/4 396/1/4

f 193/1/4 112/1/4 244/1/4 402/1/4

f 208/1/4 211/1/4 288/1/4 405/1/4

f 541/4/4 542/4/4 543/4/4 375/4/4

f 536/4/4 544/4/4 372/4/4 526/4/4

f 372/4/4 375/4/4 497/4/4 486/4/4

f 542/1/4 545/1/4 546/1/4 543/1/4

f 375/1/4 543/1/4 407/1/4 497/1/4

f 486/1/4 497/1/4 248/1/4 235/1/4

f 526/1/4 372/1/4 486/1/4 267/1/4

f 537/1/4 536/1/4 526/1/4 525/1/4

f 128/1/4 547/1/4 544/1/4 536/1/4

f 227/1/4 203/1/4 542/1/4 541/1/4

f 203/4/4 202/4/4 545/4/4 542/4/4

f 543/4/4 546/4/4 408/4/4 407/4/4

f 205/4/4 197/4/4 547/4/4 128/4/4

f 210/1/4 538/1/4 411/1/4 410/1/4

f 207/1/4 206/1/4 484/1/4 139/1/4

f 1/6/5 4/6/5 101/6/5 412/6/5

f 413/1/5 548/1/5 142/1/5 414/1/5

f 240/1/5 239/1/5 549/1/5 548/1/5

f 417/1/5 240/1/5 548/1/5 413/1/5

f 287/6/5 482/6/5 209/6/5 208/6/5

f 5/6/5 8/6/5 212/6/5 40/6/5

f 12/6/5 5/6/5 40/6/5 39/6/5

f 16/6/5 9/6/5 51/6/5 50/6/5

f 23/1/5 21/1/5 60/1/5 59/1/5

f 25/5/5 27/5/5 49/5/5 55/5/5

f 421/6/5 550/6/5 92/6/5 91/6/5

f 258/6/5 257/6/5 551/6/5 197/6/5

f 38/6/5 41/6/5 77/6/5 83/6/5

f 42/1/5 45/1/5 216/1/5 215/1/5

f 52/6/5 38/6/5 83/6/5 89/6/5

f 62/6/5 55/6/5 132/6/5 131/6/5

f 65/6/5 58/6/5 231/6/5 230/6/5

f 268/4/5 267/4/5 234/4/5 233/4/5

f 77/6/5 78/6/5 488/6/5 491/6/5

f 82/1/5 84/1/5 492/1/5 495/1/5

f 104/6/5 105/6/5 242/6/5 241/6/5

f 548/1/5 549/1/5 143/1/5 142/1/5

f 550/6/5 137/6/5 98/6/5 92/6/5

f 379/6/5 378/6/5 482/6/5 287/6/5

f 136/6/5 232/6/5 439/6/5 552/6/5

f 263/1/5 358/1/5 252/1/5 251/1/5

f 119/6/5 120/6/5 502/6/5 505/6/5

f 491/6/5 488/6/5 506/6/5 509/6/5

f 495/1/5 492/1/5 510/1/5 513/1/5

f 197/1/5 551/1/5 404/1/5 547/1/5

f 4/6/5 122/6/5 102/6/5 101/6/5

f 102/6/5 515/6/5 517/6/5 239/6/5

f 549/6/5 518/6/5 520/6/5 143/6/5

f 257/6/5 287/6/5 208/6/5 551/6/5

f 98/6/5 522/6/5 172/6/5 171/6/5

f 143/6/5 520/6/5 524/6/5 317/6/5

f 552/6/5 439/6/5 449/6/5 553/6/5

f 451/4/5 525/4/5 266/4/5 265/4/5

f 453/6/5 552/6/5 553/6/5 454/6/5

f 505/6/5 502/6/5 276/6/5 275/6/5

f 509/6/5 506/6/5 528/6/5 531/6/5

f 513/1/5 510/1/5 532/1/5 535/1/5

f 412/6/5 101/6/5 240/6/5 417/6/5

f 126/4/5 129/4/5 537/4/5 464/4/5

f 466/1/5 164/1/5 550/1/5 421/1/5

f 338/6/5 166/6/5 283/6/5 282/6/5

f 239/6/5 517/6/5 518/6/5 549/6/5

f 553/6/5 449/6/5 462/6/5 554/6/5

f 454/6/5 553/6/5 554/6/5 467/6/5

f 531/6/5 528/6/5 301/6/5 300/6/5

f 535/1/5 532/1/5 306/1/5 305/1/5

f 414/6/5 142/6/5 318/6/5 469/6/5

f 134/6/5 136/6/5 552/6/5 453/6/5

f 137/6/5 140/6/5 522/6/5 98/6/5

f 145/7/5 146/7/5 320/7/5 319/7/5

f 352/5/5 344/5/5 328/5/5 327/5/5

f 554/6/5 462/6/5 162/6/5 161/6/5

f 467/6/5 554/6/5 161/6/5 331/6/5

f 307/6/5 300/6/5 337/6/5 336/6/5

f 153/1/5 156/1/5 340/1/5 339/1/5

f 312/6/5 307/6/5 336/6/5 347/6/5

f 346/6/5 345/6/5 285/6/5 260/6/5

f 122/6/5 159/6/5 515/6/5 102/6/5

f 326/6/5 325/6/5 352/6/5 359/6/5

f 160/6/5 163/6/5 356/6/5 362/6/5

f 164/1/5 165/1/5 137/1/5 550/1/5

f 166/6/5 169/6/5 363/6/5 283/6/5

f 469/6/5 318/6/5 366/6/5 365/6/5

f 318/6/5 317/6/5 368/6/5 366/6/5

f 317/6/5 524/6/5 370/6/5 368/6/5

f 544/2/5 539/2/5 373/2/5 372/2/5

f 401/6/5 400/6/5 164/6/5 466/6/5

f 547/6/5 404/6/5 539/6/5 544/6/5

f 176/4/5 148/4/5 380/4/5 384/4/5

f 149/4/5 179/4/5 386/4/5 381/4/5

f 190/1/5 191/1/5 399/1/5 398/1/5

f 551/1/5 208/1/5 405/1/5 404/1/5

f 464/1/5 537/1/5 525/1/5 451/1/5

f 204/4/5 205/4/5 128/4/5 127/4/5

f 211/1/5 210/1/5 410/1/5 288/1/5

f 95/1/5 207/1/5 139/1/5 138/1/5

f 2/6/6 90/6/6 93/6/6 3/6/6

f 6/6/6 214/6/6 213/6/6 7/6/6

f 10/6/6 36/6/6 37/6/6 11/6/6

f 14/6/6 130/6/6 32/6/6 15/6/6

f 18/6/6 106/6/6 108/6/6 19/6/6

f 24/1/6 17/1/6 20/1/6 22/1/6

f 29/6/6 63/6/6 56/6/6 30/6/6

f 33/6/6 79/6/6 68/6/6 34/6/6

f 43/1/6 218/1/6 217/1/6 44/1/6

f 47/6/6 85/6/6 80/6/6 48/6/6

f 424/1/6 222/1/6 221/1/6 442/1/6

f 221/6/6 226/6/6 225/6/6 321/6/6

f 57/1/6 88/1/6 82/1/6 484/1/6

f 53/6/6 96/6/6 85/6/6 47/6/6

f 199/6/6 203/6/6 229/6/6 353/6/6

f 434/1/6 433/1/6 446/1/6 436/1/6

f 64/1/6 44/1/6 133/1/6 54/1/6

f 68/6/6 490/6/6 487/6/6 69/6/6

f 80/6/6 494/6/6 489/6/6 81/6/6

f 86/6/6 555/6/6 493/6/6 87/6/6

f 30/6/6 56/6/6 57/6/6 94/6/6

f 97/6/6 437/6/6 555/6/6 86/6/6

f 107/6/6 434/6/6 436/6/6 96/6/6

f 110/1/6 246/1/6 245/1/6 111/1/6

f 406/4/6 250/4/6 249/4/6 407/4/6

f 433/1/6 443/1/6 457/1/6 446/1/6

f 223/1/6 254/1/6 253/1/6 224/1/6

f 114/6/6 504/6/6 499/6/6 115/6/6

f 490/6/6 508/6/6 503/6/6 487/6/6

f 494/6/6 512/6/6 507/6/6 489/6/6

f 555/6/6 556/6/6 511/6/6 493/6/6

f 437/6/6 447/6/6 556/6/6 555/6/6

f 3/6/6 93/6/6 99/6/6 121/6/6

f 99/6/6 170/6/6 173/6/6 516/6/6

f 219/1/6 264/1/6 223/1/6 220/1/6

f 376/6/6 286/6/6 523/6/6 377/6/6

f 456/6/6 455/6/6 470/6/6 459/6/6

f 504/6/6 272/6/6 271/6/6 499/6/6

f 508/6/6 530/6/6 527/6/6 503/6/6

f 512/6/6 534/6/6 529/6/6 507/6/6

f 556/6/6 557/6/6 533/6/6 511/6/6

f 447/6/6 458/6/6 557/6/6 556/6/6

f 124/1/6 460/1/6 431/1/6 106/1/6

f 353/6/6 229/6/6 289/6/6 354/6/6

f 455/6/6 468/6/6 423/6/6 470/6/6

f 530/6/6 293/6/6 292/6/6 527/6/6

f 534/6/6 304/6/6 303/6/6 529/6/6

f 557/6/6 310/6/6 309/6/6 533/6/6

f 135/6/6 456/6/6 459/6/6 123/6/6

f 458/6/6 314/6/6 310/6/6 557/6/6

f 443/6/6 322/6/6 313/6/6 457/6/6

f 277/6/6 281/6/6 330/6/6 278/6/6

f 468/6/6 332/6/6 219/6/6 423/6/6

f 151/6/6 19/6/6 46/6/6 152/6/6

f 154/1/6 341/1/6 323/1/6 155/1/6

f 308/6/6 343/6/6 342/6/6 304/6/6

f 157/1/6 123/1/6 125/1/6 17/1/6

f 225/6/6 349/6/6 348/6/6 280/6/6

f 311/1/6 354/1/6 538/1/6 305/1/6

f 313/6/6 350/6/6 343/6/6 308/6/6

f 333/6/6 329/6/6 355/6/6 334/6/6

f 121/6/6 99/6/6 516/6/6 158/6/6

f 323/1/6 360/1/6 351/1/6 324/1/6

f 302/6/6 279/6/6 361/6/6 293/6/6

f 167/6/6 284/6/6 364/6/6 168/6/6

f 255/6/6 205/6/6 367/6/6 256/6/6

f 256/6/6 367/6/6 369/6/6 286/6/6

f 286/6/6 369/6/6 371/6/6 523/6/6

f 541/2/6 375/2/6 374/2/6 540/2/6

f 460/4/6 471/4/6 432/4/6 431/4/6

f 471/4/6 424/4/6 442/4/6 432/4/6

f 380/6/6 28/6/6 31/6/6 381/6/6

f 227/6/6 541/6/6 540/6/6 228/6/6

f 177/4/6 385/4/6 383/4/6 174/4/6

f 175/4/6 382/4/6 387/4/6 178/4/6

f 481/1/6 480/1/6 546/1/6 545/1/6

f 198/4/6 200/4/6 203/4/6 199/4/6

f 201/4/6 481/4/6 545/4/6 202/4/6

f 480/4/6 409/4/6 408/4/6 546/4/6

f 354/1/6 289/1/6 411/1/6 538/1/6

f 94/1/6 57/1/6 484/1/6 206/1/6

# numNormals 6
# numTexCoords 9
# numVerts 557
# numFaces 556
